<svg version="1.1" id="Layer_1" xmlns="http://www.w3.org/2000/svg" xmlns:xlink="http://www.w3.org/1999/xlink" x="0px" y="0px"
	 viewBox="0 0 32 32" style="enable-background:new 0 0 32 32;" xml:space="preserve">
<g fill="#fff" id="XMLID_5_">
	<ellipse id="XMLID_6_" cx="15.9" cy="15.7" rx="2" ry="2"/>
	<path id="XMLID_11_" d="M30,3.2C28.2,2.3,23,0,15.9,0C8.8,0,3.7,2.3,2,3.2C1.6,3.4,1.4,3.9,1.5,4.3l2.6,14.8c0,0.2,0.2,0.4,0.3,0.6
		C5.6,20.6,10.1,24,16,24c5.9,0,10.3-3.4,11.4-4.3c0.2-0.1,0.3-0.4,0.3-0.6l2.8-14.8C30.6,3.9,30.4,3.4,30,3.2z M15.9,19.9
		c-2.3,0-4.2-1.9-4.2-4.3c0-2.4,1.9-4.3,4.2-4.3s4.2,1.9,4.2,4.3C20.1,18,18.2,19.9,15.9,19.9z M15.5,5.9C9.9,5.9,5.4,5,5.4,4
		c0-1,4.5-2.3,10.1-2.3C21.1,1.7,25.6,3,25.6,4C25.6,5,21.1,5.9,15.5,5.9z"/>
	<path id="XMLID_16_" d="M26.6,23.4c-1.7,0.5-4.6,3.2-10.6,3.2c-6,0-8.9-2.7-10.5-3.2C5.1,23.3,5,23.9,5,24.2l0.4,3.5
		c0,0.2,0.1,0.4,0.3,0.5c1,0.8,4.3,3.7,10.3,3.7c5.9,0,9.2-2.9,10.1-3.8c0.2-0.1,0.3-0.3,0.3-0.5l0.5-3.5
		C27,23.9,26.9,23.3,26.6,23.4z"/>
</g>
</svg>
