<svg version="1.1" id="Layer_1" xmlns="http://www.w3.org/2000/svg" xmlns:xlink="http://www.w3.org/1999/xlink" x="0px" y="0px"
	 viewBox="0 0 32 32" style="enable-background:new 0 0 32 32;" xml:space="preserve">
<path fill="#000" id="XMLID_10_" d="M19.9,21.2c0.3,0.3,0.7,0.7,0.9,1.2c0.5,0.9,0.5,1.6,0.5,1.7l0.3,7.9H11v-5c0,0-3.3,0.4-5.1-0.8
	C4,25,4.6,23.8,3.4,22.6c-1.1-1.1-2.1-1.7-2.1-2.2c0-0.5,1.3-0.3,2.2,0c0.9,0.3,2.4,3.7,4,3.8c1.6,0.1,3.9-0.2,3.9-0.2
	s0-0.7,0.4-1.7c0.2-0.5,0.5-0.8,0.6-1c-5.6-0.8-9.3-3.7-9.3-9.7c0-2.3,0.8-4.2,2-5.6c0-0.1,0-0.1,0-0.2C4.6,2.6,5.7,0,5.7,0
	s3.1,0.5,4.9,1.8C10.8,2,11,2.2,11.3,2.3c1.7-0.5,3.4-0.7,4.9-0.7c1.6,0,3.4,0.2,5.1,0.8C21.6,2.2,21.8,2,22,1.8C23.9,0.5,27,0,27,0
	s1.1,2.6,0.6,5.7c0,0.2-0.1,0.3-0.1,0.4c1.1,1.4,1.8,3.2,1.8,5.4C29.3,17.6,25.6,20.4,19.9,21.2z"/>
</svg>
