<?xml version="1.0" encoding="utf-8"?>
<!-- Generator: Adobe Illustrator 19.0.0, SVG Export Plug-In . SVG Version: 6.00 Build 0)  -->
<svg version="1.1" id="Layer_1" xmlns="http://www.w3.org/2000/svg" xmlns:xlink="http://www.w3.org/1999/xlink" x="0px" y="0px"
	 viewBox="0 0 32 32" style="enable-background:new 0 0 32 32;" xml:space="preserve">
<g fill="#000" id="XMLID_1_">
	<path id="XMLID_2_" d="M8.2,27.2c0,0.2,0,0.4,0,0.6c0,0.2-0.1,0.3-0.1,0.4c0,0.1-0.1,0.2-0.2,0.2s-0.1,0.1-0.2,0.1
		c-0.2,0.1-0.4,0.1-0.6,0.1c-0.2,0-0.4,0-0.7,0c-0.7,0-1.4-0.1-1.9-0.4s-0.9-0.6-1.2-1s-0.5-1-0.6-1.7c-0.1-0.7-0.2-1.6-0.2-2.6
		v-2.4c0-0.6,0-1.1-0.1-1.4s-0.2-0.7-0.4-0.9s-0.4-0.5-0.6-0.7c-0.3-0.2-0.6-0.3-0.9-0.4c-0.1,0-0.2-0.1-0.2-0.1
		c-0.1-0.1-0.1-0.1-0.2-0.2c0-0.1-0.1-0.2-0.1-0.4c0-0.2,0-0.4,0-0.6c0-0.3,0-0.5,0-0.6s0-0.3,0.1-0.4c0-0.1,0.1-0.2,0.2-0.2
		c0.1,0,0.1-0.1,0.2-0.1c0.7-0.1,1.2-0.4,1.5-1S2.5,12,2.5,11V9.1c0-1.1,0.1-2,0.2-2.6s0.3-1.2,0.6-1.7S4,4,4.5,3.8s1.1-0.3,1.8-0.3
		c0.2,0,0.5,0,0.7,0c0.2,0,0.4,0.1,0.6,0.1c0.1,0,0.2,0,0.2,0.1C7.9,3.7,8,3.8,8,3.9c0,0.1,0.1,0.2,0.1,0.4c0,0.2,0,0.4,0,0.6
		c0,0.2,0,0.4,0,0.6S8.1,5.8,8,5.9C8,6,7.9,6,7.8,6.1c-0.1,0-0.2,0.1-0.2,0.1l-0.5,0c-0.2,0-0.4,0.1-0.6,0.1S6.2,6.5,6.1,6.7
		S6,7.2,5.9,7.5c0,0.3-0.1,0.9-0.1,1.6v1.8c0,0.7-0.1,1.3-0.2,1.8c-0.1,0.5-0.3,0.9-0.5,1.3c-0.2,0.4-0.5,0.7-0.9,1
		s-0.8,0.5-1.4,0.6c0.5,0.1,1,0.3,1.4,0.6s0.7,0.6,0.9,1c0.2,0.4,0.4,0.8,0.5,1.3c0.1,0.5,0.2,1.1,0.2,1.8v2.4c0,0.7,0,1.2,0.1,1.6
		c0,0.3,0.1,0.6,0.2,0.8s0.2,0.3,0.3,0.4c0.1,0.1,0.3,0.1,0.5,0.1h0.5c0.1,0,0.2,0,0.3,0.1C7.9,26,8,26,8,26.1
		c0.1,0.1,0.1,0.2,0.1,0.4C8.2,26.7,8.2,26.9,8.2,27.2z"/>
	<path id="XMLID_4_" d="M32,15.7c0,0.3,0,0.5,0,0.7c0,0.2-0.1,0.3-0.1,0.4s-0.1,0.2-0.2,0.2S31.6,17,31.5,17c-0.4,0-0.7,0.2-0.9,0.4
		s-0.5,0.5-0.6,0.9c-0.2,0.3-0.3,0.7-0.4,1.2c-0.1,0.4-0.1,1-0.1,1.6v1.8c0,1.1-0.1,2-0.2,2.6s-0.3,1.2-0.6,1.7
		c-0.3,0.5-0.7,0.8-1.2,1s-1.1,0.4-1.8,0.4c-0.2,0-0.5,0-0.7,0c-0.2,0-0.4-0.1-0.7-0.1c-0.1,0-0.1-0.1-0.2-0.1S24,28.2,24,28.1
		c0-0.1-0.1-0.2-0.1-0.4s0-0.4,0-0.6s0-0.4,0-0.6c0-0.2,0.1-0.3,0.1-0.4c0.1-0.1,0.1-0.2,0.2-0.2c0.1,0,0.1-0.1,0.2-0.1h0.5
		c0.2,0,0.4-0.1,0.6-0.1s0.3-0.2,0.4-0.4s0.2-0.5,0.2-0.8c0-0.3,0.1-0.9,0.1-1.6v-1.8c0-0.7,0.1-1.4,0.2-1.9s0.3-1.1,0.5-1.6
		c0.2-0.5,0.5-0.9,0.9-1.2c0.4-0.4,0.8-0.6,1.4-0.7c-0.5-0.1-1-0.3-1.4-0.5c-0.4-0.2-0.7-0.5-0.9-0.8c-0.2-0.3-0.4-0.7-0.5-1.1
		s-0.2-1-0.2-1.7V9.1c0-0.7,0-1.2-0.1-1.6c0-0.3-0.1-0.6-0.2-0.8c-0.1-0.2-0.2-0.4-0.3-0.4c-0.1-0.1-0.3-0.1-0.5-0.1l-0.5,0
		c-0.1,0-0.3,0-0.4-0.1C24.1,6,24,6,23.9,5.9s-0.1-0.2-0.1-0.4c0-0.2,0-0.4,0-0.6c0-0.2,0-0.4,0-0.6c0-0.2,0.1-0.3,0.1-0.4
		c0.1-0.1,0.1-0.2,0.2-0.2c0.1,0,0.1-0.1,0.2-0.1c0.2-0.1,0.4-0.1,0.6-0.1c0.2,0,0.4,0,0.7,0c0.7,0,1.4,0.1,1.9,0.3
		c0.5,0.2,0.9,0.6,1.2,1s0.5,1,0.6,1.7s0.2,1.6,0.2,2.6v2.4c0,0.6,0,1,0.1,1.3s0.2,0.5,0.3,0.7c0.2,0.2,0.4,0.3,0.6,0.5
		c0.3,0.1,0.6,0.2,0.9,0.3c0.1,0,0.2,0,0.2,0.1c0.1,0.1,0.1,0.1,0.2,0.2c0,0.1,0.1,0.2,0.1,0.4S32,15.4,32,15.7z"/>
</g>
</svg>
