<svg xmlns="http://www.w3.org/2000/svg" viewBox="0 0 36 36"><defs><style>.a{fill:#0077b5;}.b{fill:#fff;}</style></defs><title>social-linkedin</title><rect class="a" width="36" height="36"/><rect class="b" x="8.32" y="14.43" width="4.66" height="13.54" rx="0.32" ry="0.32"/><circle class="b" cx="10.65" cy="10.67" r="2.65"/><path class="b" d="M22.87,14.11a4.72,4.72,0,0,0-3.53,1.48V14.76A0.32,0.32,0,0,0,19,14.43H15.17a0.32,0.32,0,0,0-.32.32v12.9a0.32,0.32,0,0,0,.32.32h4a0.32,0.32,0,0,0,.32-0.32V21.27c0-2.15.58-3,2.08-3s1.76,1.34,1.76,3.1v6.27a0.32,0.32,0,0,0,.32.32h4A0.32,0.32,0,0,0,28,27.66V20.58C28,17.38,27.39,14.11,22.87,14.11Z" transform="translate(0 0)"/></svg>