<svg xmlns="http://www.w3.org/2000/svg" viewBox="0 0 36 36"><defs><style>.a{fill:#3b5998;}.b{fill:#fff;}</style></defs><title>social-facebook</title><rect class="a" width="36" height="36"/><path class="b" d="M20.83,11.7h1.9a0.32,0.32,0,0,0,.32-0.32v-3A0.32,0.32,0,0,0,22.73,8H20a5,5,0,0,0-3.28,1.24,3.44,3.44,0,0,0-1.14,3.06v2.44h-2.3a0.32,0.32,0,0,0-.32.32v3.28a0.32,0.32,0,0,0,.32.32h2.19v9a0.32,0.32,0,0,0,.32.32H19.5a0.32,0.32,0,0,0,.32-0.32v-9h2.52a0.32,0.32,0,0,0,.32-0.29L23,15.09a0.32,0.32,0,0,0-.32-0.36h-2.9V12.64A0.87,0.87,0,0,1,20.83,11.7Z" transform="translate(0 0)"/></svg>