<svg xmlns="http://www.w3.org/2000/svg" viewBox="0 0 36 36"><defs><style>.a{fill:#1da1f2;}.b{fill:#fff;}</style></defs><title>social-twitter</title><rect class="a" width="36" height="36"/><path class="b" d="M27.92,11.79a0.32,0.32,0,0,0-.38-0.09,7.59,7.59,0,0,1-1,.35,4.28,4.28,0,0,0,.87-1.53A0.32,0.32,0,0,0,27,10.15a7.61,7.61,0,0,1-2.25.89,4.3,4.3,0,0,0-7.3,3.07,4.39,4.39,0,0,0,0,.55,11,11,0,0,1-7.54-4,0.32,0.32,0,0,0-.53,0,4.3,4.3,0,0,0,.44,4.94,3.64,3.64,0,0,1-.57-0.26,0.32,0.32,0,0,0-.48.27v0.06a4.31,4.31,0,0,0,2.1,3.69l-0.33,0a0.32,0.32,0,0,0-.37.42,4.29,4.29,0,0,0,3.15,2.88,7.6,7.6,0,0,1-4.06,1.16,7.77,7.77,0,0,1-.91-0.05,0.32,0.32,0,0,0-.21.59,11.58,11.58,0,0,0,6.26,1.84A11.14,11.14,0,0,0,23,22.4a12,12,0,0,0,3-7.83c0-.12,0-0.24,0-0.36a8.35,8.35,0,0,0,1.92-2A0.32,0.32,0,0,0,27.92,11.79Z" transform="translate(0 0)"/></svg>