<svg xmlns="http://www.w3.org/2000/svg" viewBox="0 0 36 36"><defs><style>.a{fill:#999;}.b{fill:#fff;}</style></defs><title>social-github</title><rect class="a" width="36" height="36"/><path class="b" d="M26,17.3a25.76,25.76,0,0,1,5,.4c-1.47-.59-3.74-0.37-5.66-0.52,0.65-2.27.19-5.06-1.15-6.2A4.53,4.53,0,0,0,24,8a4.62,4.62,0,0,0-1.85.4,6.43,6.43,0,0,1-1.5.8c-0.5,0-1.19-.25-1.85-0.29a11.46,11.46,0,0,0-3.92.4A6,6,0,0,0,11.59,8a4.12,4.12,0,0,0-.23,3.22c-1.32,1.12-1.53,4.13-.92,6A18.13,18.13,0,0,0,5,17.7a31.56,31.56,0,0,1,3.87-.4c0.68,0,1.78-.24,1.9.52A19,19,0,0,0,5,18.68a31.5,31.5,0,0,1,5.77-.8c0.88,1.72,2.78,2.44,5.08,2.75a2.44,2.44,0,0,0-.92,1.49,4.49,4.49,0,0,1-1.38.29c-1.85-.06-1.93-2.68-4-2.18,0.16,0.56.7,0.62,1,1a11.12,11.12,0,0,1,.69,1.44c0.63,1,1.92,1.42,3.58,1.09-0.11,1,.2,2-0.12,2.64-0.23.48-.76,0.4-0.86,0.92A1.73,1.73,0,0,0,16,26.66c0.56-1.21-.44-3.57.46-4.25-0.2,1.48.31,3.31-.12,4.54a2,2,0,0,0-.46,1c2.35,0.29,1.89-2.7,1.9-4.88,0-.25-0.18-0.83.23-0.86,0.44,2.23-.69,6,2,5.74,0.12-.43-0.31-0.61-0.46-1.09-0.38-1.21,0-3.12-.06-4.48,0.78,0.84.06,2.77,0.35,4,0.16,0.73,1.61,1.49,2.19.8a7.34,7.34,0,0,1-.81-0.8c-0.45-.89,0-2.85-0.17-4.19a4.25,4.25,0,0,0-.87-1.66c2.38-.18,4.11-1,5-2.7a42.53,42.53,0,0,1,5.77.75,27.4,27.4,0,0,0-5.77-.86C25.19,17.29,25.69,17.32,26,17.3Z" transform="translate(0 0)"/></svg>